<?xml version="1.0"?>
<svg xmlns="http://www.w3.org/2000/svg" width="512" height="512" viewBox="0 0 128 128"><g><path d="M69.818,51.038c1.724.133,3.438.329,5.095.582a1.713,1.713,0,0,0,.266.021,1.75,1.75,0,0,0,.262-3.48c-1.741-.266-3.542-.473-5.353-.613a1.75,1.75,0,0,0-.27,3.49Z"/><path d="M81.3,52.942c9,2.385,13.511,5.985,13.556,6.021a1.75,1.75,0,0,0,2.215-2.71c-.2-.166-5.071-4.1-14.875-6.693a1.749,1.749,0,1,0-.9,3.382Z"/><path d="M116.5,28.8l-3.67-7.259a1.751,1.751,0,0,0-2.053-.89c-.381.112-7.835,2.374-16.187,10.294a72.033,72.033,0,0,1,6.9-13.32,1.751,1.751,0,0,0-.49-2.486l-7.554-4.808a1.75,1.75,0,0,0-2.349.441A70.229,70.229,0,0,0,83.46,24.161c1.426-9.415,2.963-15.533,2.986-15.626a1.749,1.749,0,0,0-1.327-2.142L76.765,4.6a1.747,1.747,0,0,0-2.052,1.232c-.654,2.3-1.24,4.631-1.767,6.937-.334-4.038-.732-6.527-.766-6.74a1.75,1.75,0,0,0-1.727-1.468H60.528a1.748,1.748,0,0,0-1.745,1.88,98.646,98.646,0,0,1-1.058,20.715A171.215,171.215,0,0,0,53.287,5.828,1.749,1.749,0,0,0,51.235,4.6l-8.354,1.8a1.749,1.749,0,0,0-1.327,2.142c.023.093,1.56,6.208,2.987,15.629a70.255,70.255,0,0,0-7.637-13.4,1.75,1.75,0,0,0-2.349-.441L27,15.136a1.751,1.751,0,0,0-.49,2.486,72.033,72.033,0,0,1,6.9,13.32C25.056,23.022,17.6,20.76,17.221,20.648a1.75,1.75,0,0,0-2.053.89L11.5,28.8a1.748,1.748,0,0,0,.874,2.4A42.885,42.885,0,0,1,30.1,45.845a37.549,37.549,0,0,0-7.367,4.342,1.75,1.75,0,0,0-.624,1.585l9.418,70.154a1.75,1.75,0,0,0,1.735,1.517H114.3a1.749,1.749,0,0,0,1.75-1.75V100.261a1.749,1.749,0,0,0-1.75-1.75h-2.355a10.665,10.665,0,0,0-7.2-8.413,12.452,12.452,0,0,0-2.929-7.97l4.076-30.356a1.75,1.75,0,0,0-.624-1.585A37.549,37.549,0,0,0,97.9,45.845,42.885,42.885,0,0,1,115.628,31.2a1.748,1.748,0,0,0,.874-2.4ZM92.967,14.173l4.653,2.961a79.172,79.172,0,0,0-9,20.586c-.012.041-.023.081-.032.122-.372,1.368-.713,2.778-1.011,4.229-1.792-.495-3.72-.956-5.791-1.361A77.151,77.151,0,0,1,92.967,14.173ZM77.643,8.364l5,1.075A220.654,220.654,0,0,0,78.125,40.08c-1.832-.274-3.765-.5-5.788-.668A193,193,0,0,1,77.643,8.364ZM62.387,8.057h6.544a132.643,132.643,0,0,1,.789,23.1c0,.006,0,.011,0,.016-.452,3.52-.728,6.329-.875,8.008Q66.5,39.064,64,39.062t-4.845.115c-.012-.131-.024-.272-.038-.417C59.664,36.485,63.027,21.831,62.387,8.057Zm-12.03.307a193.121,193.121,0,0,1,5.305,31.048c-2.022.17-3.955.394-5.787.668A220.654,220.654,0,0,0,45.362,9.439ZM35.033,14.173C42.305,24.687,45.306,36.429,46.216,40.71c-2.071.405-4,.866-5.79,1.361-.3-1.451-.639-2.861-1.011-4.229-.009-.041-.02-.081-.032-.122a79.172,79.172,0,0,0-9-20.586ZM15.444,28.749l2.143-4.239c3.1,1.276,11.037,5.227,18.534,14.547.35,1.307.668,2.653.945,4.032-1.321.437-2.556.886-3.692,1.338A47.086,47.086,0,0,0,15.444,28.749ZM96.37,77.335a1.751,1.751,0,0,0-2.492.856,24.2,24.2,0,0,1-3.606,5.891,9.186,9.186,0,0,0-2.357,5.7,10.673,10.673,0,0,0-6.082,3.661h-50.6l-2.56-19.067H99.326l-.619,4.616A19.608,19.608,0,0,0,96.37,77.335ZM31.7,96.941H79.921a10.772,10.772,0,0,0-.384,1.57h-2.36a1.75,1.75,0,0,0-1.75,1.75v19.682H34.792Zm80.843,23H78.927V102.011h33.619Zm-4.181-21.432H83.112A7.14,7.14,0,0,1,84.14,96.2c.013-.018.027-.035.039-.054a7.185,7.185,0,0,1,5.629-3.086,1.75,1.75,0,0,0,1.659-2.013,5.6,5.6,0,0,1,1.438-4.662,25.655,25.655,0,0,0,3.288-4.921c2.157,1.691,5.691,5.212,4.948,9.677a1.749,1.749,0,0,0,1.435,2.012A7.18,7.18,0,0,1,108.365,98.511ZM99.8,70.874H28.2L25.715,52.339C28.84,50.19,41.521,42.562,64,42.562s35.166,7.631,38.285,9.777Zm-5.17-26.447c-1.136-.452-2.371-.9-3.692-1.338.277-1.379.595-2.725.945-4.032,7.5-9.321,15.434-13.273,18.534-14.547l2.143,4.239A47.086,47.086,0,0,0,94.626,44.427Z"/></g></svg>
