<?xml version="1.0"?>
<svg xmlns="http://www.w3.org/2000/svg" width="512" height="512" viewBox="0 0 128 128"><g><path d="M114.005,23.862a74.416,74.416,0,0,0-100.01,0,6.027,6.027,0,0,0-1.336,7.132l4.552,9.1a6.077,6.077,0,0,0,5.431,3.346c.09,0,.175-.021.264-.025L37.288,72.183A28.679,28.679,0,0,1,40.3,84.948v22.859a5.974,5.974,0,1,0,11.948,0v-5.7l10.185,20.37a1.75,1.75,0,0,0,3.13,0L79.477,94.654A6.061,6.061,0,0,0,91.469,93.4V82.357a1.631,1.631,0,0,1,1.63-1.628h1.063a5.136,5.136,0,0,0,5.129-5.13V59.349a16.8,16.8,0,0,1,1.526-6.978l4.294-8.939a6.014,6.014,0,0,0,5.678-3.333l4.552-9.1A6.027,6.027,0,0,0,114.005,23.862ZM97.65,50.879a20.364,20.364,0,0,0-1.859,8.47V75.6a1.631,1.631,0,0,1-1.629,1.63H93.1a5.135,5.135,0,0,0-5.13,5.128V93.4a2.561,2.561,0,1,1-5.122,0V87.5a1.75,1.75,0,0,0-3.316-.782L64,117.78,52.065,93.911a1.75,1.75,0,0,0-3.315.782v13.114a2.474,2.474,0,1,1-4.948,0V84.948a32.2,32.2,0,0,0-3.383-14.33L26.211,42.2a5.906,5.906,0,0,0,.584-.48,52.647,52.647,0,0,1,74.409,0,6.05,6.05,0,0,0,.6.518Zm14.56-21.45-4.552,9.1a2.526,2.526,0,0,1-1.877,1.378,2.4,2.4,0,0,1-2.1-.667,56.147,56.147,0,0,0-79.356,0,2.394,2.394,0,0,1-2.1.667,2.527,2.527,0,0,1-1.876-1.377l-4.552-9.1a2.516,2.516,0,0,1,.558-2.976,70.916,70.916,0,0,1,95.3,0A2.516,2.516,0,0,1,112.21,29.429Z"/><path d="M64,73.3a8.292,8.292,0,1,0,8.292,8.291A8.3,8.3,0,0,0,64,73.3Zm0,13.083a4.792,4.792,0,1,1,4.792-4.792A4.8,4.8,0,0,1,64,86.385Z"/><path d="M55.408,48.235a8.292,8.292,0,1,0-8.292,8.291A8.3,8.3,0,0,0,55.408,48.235Zm-8.292,4.791a4.791,4.791,0,1,1,4.792-4.791A4.8,4.8,0,0,1,47.116,53.026Z"/><path d="M80.884,48.909A8.292,8.292,0,1,0,89.175,57.2,8.3,8.3,0,0,0,80.884,48.909Zm0,13.083A4.792,4.792,0,1,1,85.675,57.2,4.8,4.8,0,0,1,80.884,61.992Z"/><path d="M63.778,46.931l2.916,1.887a1.75,1.75,0,0,0,1.9-2.939L65.68,43.992a1.75,1.75,0,0,0-1.9,2.939Z"/><path d="M86.724,37.1l-2.745,1.2a1.75,1.75,0,1,0,1.4,3.207l2.745-1.2a1.75,1.75,0,0,0-1.4-3.207Z"/><path d="M54.639,62.144a1.751,1.751,0,0,0-2.431.468l-2.32,3.429A1.75,1.75,0,0,0,52.787,68l2.32-3.428A1.75,1.75,0,0,0,54.639,62.144Z"/><path d="M63.617,96.528l-1.458,1.2a1.75,1.75,0,1,0,2.224,2.7l1.458-1.2a1.75,1.75,0,1,0-2.224-2.7Z"/><path d="M80.928,72.031l-2.111-1.377a1.75,1.75,0,0,0-1.912,2.931l2.111,1.377a1.75,1.75,0,1,0,1.912-2.931Z"/><path d="M92.318,19.022a1.75,1.75,0,0,0-1.554,3.136,54.4,54.4,0,0,1,12.168,8.066,1.75,1.75,0,0,0,2.336-2.607A57.881,57.881,0,0,0,92.318,19.022Z"/></g></svg>
