<?xml version="1.0"?>
<svg xmlns="http://www.w3.org/2000/svg" width="512" height="512" viewBox="0 0 128 128"><g><path d="M123.365,54.587c-.5-3.152-3.495-7.281-8.892-12.283a8.632,8.632,0,0,0,2.753-6.3c0-17.341-14.559-31.449-32.455-31.449H43.229c-17.9,0-32.455,14.108-32.455,31.449a8.634,8.634,0,0,0,2.753,6.3c-5.4,5-8.39,9.129-8.892,12.282-.313,1.967.409,2.933,1.071,3.4,1.874,1.312,4.5-.144,8.482-2.35.733-.406,1.513-.837,2.3-1.253a9.357,9.357,0,0,0-.128,1.508v3.087a9.374,9.374,0,0,0,3.949,7.636,9.377,9.377,0,0,0-3.949,7.637v3.086a9.346,9.346,0,0,0,2.161,5.984,8.859,8.859,0,0,0-7.748,8.676c0,17.341,14.559,31.449,32.455,31.449H84.771c17.9,0,32.455-14.108,32.455-31.449a8.86,8.86,0,0,0-7.748-8.676,9.346,9.346,0,0,0,2.161-5.984V74.248a9.377,9.377,0,0,0-3.949-7.637,9.374,9.374,0,0,0,3.949-7.636V55.888a9.495,9.495,0,0,0-.128-1.509c.788.417,1.568.848,2.3,1.254,2.936,1.628,5.136,2.848,6.842,2.848a2.769,2.769,0,0,0,1.64-.5C122.955,57.52,123.678,56.554,123.365,54.587ZM43.229,8.057H84.771c15.966,0,28.955,12.538,28.955,27.949a5.4,5.4,0,0,1-5.511,5.273H19.785a5.4,5.4,0,0,1-5.511-5.273C14.274,20.6,27.263,8.057,43.229,8.057ZM19.861,74.248a5.894,5.894,0,0,1,5.887-5.887h4.809v14.86H25.748a5.893,5.893,0,0,1-5.887-5.887Zm22.206-5.887V88.333a3.209,3.209,0,0,1-3.206,3.206h-1.6a3.21,3.21,0,0,1-3.207-3.206V68.361Zm9.428,0v6.4a6.943,6.943,0,0,0,6.935,6.935H62.2a3.432,3.432,0,0,1,2.854,1.527H45.567V68.361Zm47.51,0v2.246a3.439,3.439,0,0,1-3.435,3.435h-.565a6.942,6.942,0,0,0-6.935,6.934v22.441a3.438,3.438,0,0,1-3.434,3.434h-1.7a3.438,3.438,0,0,1-3.434-3.434V97.2a6.942,6.942,0,0,0-6.935-6.935,3.438,3.438,0,0,1-3.434-3.434v-1.7c0-.035-.005-.07-.006-.105,0-.018.006-.035.006-.053,0-.054-.011-.106-.016-.16A6.937,6.937,0,0,0,62.2,78.194H58.43A3.439,3.439,0,0,1,55,74.759v-6.4Zm14.721,23.633c0,15.411-12.989,27.949-28.955,27.949H43.229c-15.966,0-28.955-12.538-28.955-27.949a5.4,5.4,0,0,1,5.511-5.273H30.557v1.612a6.714,6.714,0,0,0,6.707,6.706h1.6a6.714,6.714,0,0,0,6.706-6.706V86.721H65.635v.1a6.942,6.942,0,0,0,6.934,6.934A3.439,3.439,0,0,1,76,97.2v6.222a6.942,6.942,0,0,0,6.934,6.934h1.7a6.942,6.942,0,0,0,6.934-6.934v-16.7h16.645A5.4,5.4,0,0,1,113.726,91.994Zm-5.587-14.66a5.893,5.893,0,0,1-5.887,5.887H91.57V80.976a3.438,3.438,0,0,1,3.435-3.434h.565a6.942,6.942,0,0,0,6.935-6.935V68.374a5.889,5.889,0,0,1,5.634,5.874Zm0-21.446v3.087a5.893,5.893,0,0,1-5.887,5.886h-76.5a5.893,5.893,0,0,1-5.887-5.886V55.888a5.867,5.867,0,0,1,1.163-3.474,5.6,5.6,0,0,1,1.422-.24c1.065,0,2.179,1.041,3.47,2.246,1.91,1.784,4.287,4,7.941,4h.005c4.437,0,7.219-1.6,9.673-3.01,1.96-1.125,3.652-2.1,5.984-2.1,2.606,0,4,.952,5.773,2.158a14.147,14.147,0,0,0,17.417,0c1.77-1.206,3.167-2.158,5.772-2.158,2.331,0,4.025.972,5.984,2.1,2.454,1.41,5.236,3.007,9.673,3.01h.006c3.653,0,6.03-2.22,7.94-4,1.29-1.206,2.405-2.247,3.471-2.247a5.622,5.622,0,0,1,1.42.239A5.862,5.862,0,0,1,108.139,55.888Zm7.369-3.316a44.124,44.124,0,0,0-6.784-3.282,1.763,1.763,0,0,0-.337-.108,9.67,9.67,0,0,0-2.832-.508c-2.446,0-4.182,1.621-5.861,3.189s-3.277,3.061-5.55,3.061h0c-3.5,0-5.655-1.237-7.932-2.545-2.193-1.26-4.462-2.562-7.727-2.562a12.575,12.575,0,0,0-7.743,2.765,10.69,10.69,0,0,1-13.476,0,12.571,12.571,0,0,0-7.743-2.765c-3.265,0-5.533,1.3-7.727,2.562-2.277,1.308-4.428,2.542-7.932,2.545h0c-2.274,0-3.866-1.487-5.552-3.062s-3.414-3.188-5.859-3.188a9.681,9.681,0,0,0-2.856.516,1.724,1.724,0,0,0-.267.085,43.7,43.7,0,0,0-6.831,3.3,42.035,42.035,0,0,1-4.324,2.2c.616-2.418,3.651-6.2,8.457-10.558a9.16,9.16,0,0,0,3.16.568h88.43a9.16,9.16,0,0,0,3.16-.568c4.807,4.354,7.841,8.141,8.457,10.559A42.054,42.054,0,0,1,115.508,52.572Z"/><path d="M36.816,110.463A20.235,20.235,0,0,1,23.593,98.3a1.75,1.75,0,0,0-3.328,1.081A23.772,23.772,0,0,0,35.83,113.822a1.75,1.75,0,0,0,.986-3.359Z"/><path d="M96.909,31.178A1.75,1.75,0,1,0,99.384,28.7L97.4,26.723A1.75,1.75,0,1,0,94.929,29.2Z"/><path d="M27.271,33.663a1.751,1.751,0,0,0,2.453-.328l1.549-2.026a1.75,1.75,0,0,0-2.78-2.126l-1.55,2.026A1.75,1.75,0,0,0,27.271,33.663Z"/><path d="M65.945,33.3a1.75,1.75,0,1,0,2.83-2.058l-.953-1.31a1.749,1.749,0,1,0-2.83,2.057Z"/><path d="M50.141,19.973h2.741a1.75,1.75,0,0,0,0-3.5H50.141a1.75,1.75,0,0,0,0,3.5Z"/><path d="M77.253,22.073a1.734,1.734,0,0,0,.732.162,1.751,1.751,0,0,0,1.59-1.017l1.044-2.261a1.75,1.75,0,1,0-3.178-1.467L76.4,19.751A1.75,1.75,0,0,0,77.253,22.073Z"/></g></svg>
