<svg height="512" viewBox="0 0 128 128" width="512" xmlns="http://www.w3.org/2000/svg"><g><path d="m44.431 96.5a1.75 1.75 0 0 0 1.578-1.906l-.425-4.507a1.75 1.75 0 0 0 -3.484.328l.424 4.507a1.75 1.75 0 0 0 1.741 1.578z"/><path d="m44.755 99.934a1.749 1.749 0 0 0 -1.578 1.907l1.173 12.434a1.749 1.749 0 0 0 1.74 1.585c.055 0 .11 0 .166-.007a1.75 1.75 0 0 0 1.578-1.907l-1.173-12.434a1.75 1.75 0 0 0 -1.906-1.578z"/><path d="m109.015 47.612a10.471 10.471 0 0 0 -10.459-10.459h-.7a10.211 10.211 0 0 0 -8.848-15.334h-5.6a19.546 19.546 0 0 0 -38.824 0h-5.6a10.211 10.211 0 0 0 -8.848 15.334h-.7a10.456 10.456 0 0 0 -2.236 20.669v21.665a1.75 1.75 0 0 0 1.75 1.75h2.287l3.83 40.62a1.75 1.75 0 0 0 1.743 1.586h54.383a1.75 1.75 0 0 0 1.743-1.586l3.83-40.62h2.287a1.75 1.75 0 0 0 1.75-1.75v-21.665a10.473 10.473 0 0 0 8.212-10.21zm-78.315 10.459h24.913v4.976a6.587 6.587 0 0 0 6.58 6.58h1.107a3.084 3.084 0 0 1 3.08 3.081v5.029h-35.68zm58.9 61.872h-51.2l-3.65-38.706h31.772a6.592 6.592 0 0 0 6.439 5.223h.529a6.591 6.591 0 0 0 6.438-5.223h13.322zm5.572-42.206h-15.102v-2.4a3.084 3.084 0 0 1 3.08-3.081 6.587 6.587 0 0 0 6.58-6.58v-7.6h7.57v19.661zm3.383-23.166h-10.575a1.751 1.751 0 0 0 -1.75 1.75v9.353a3.083 3.083 0 0 1 -3.08 3.08 6.589 6.589 0 0 0 -6.58 6.581v4.544a3.084 3.084 0 0 1 -3.08 3.081h-.529a3.084 3.084 0 0 1 -3.081-3.081v-7.171a6.589 6.589 0 0 0 -6.58-6.581h-1.107a3.083 3.083 0 0 1 -3.08-3.08v-6.726a1.75 1.75 0 0 0 -1.75-1.75h-27.919a6.959 6.959 0 0 1 0-13.918h4.578a1.75 1.75 0 0 0 1.029-3.166 6.72 6.72 0 0 1 3.94-12.168h7.223a1.75 1.75 0 0 0 1.749-1.7 16.044 16.044 0 0 1 32.074 0 1.75 1.75 0 0 0 1.749 1.7h7.223a6.72 6.72 0 0 1 3.94 12.168 1.75 1.75 0 0 0 1.029 3.166h4.578a6.959 6.959 0 1 1 0 13.918z"/><path d="m71.486 23.942a1.75 1.75 0 0 0 2.475-2.474l-3.053-3.053a1.75 1.75 0 1 0 -2.474 2.475z"/><path d="m55.621 28.835a1.751 1.751 0 0 0 -2.336.82l-1.409 2.936a1.75 1.75 0 1 0 3.156 1.509l1.409-2.935a1.75 1.75 0 0 0 -.82-2.33z"/><path d="m77.541 32.772a1.75 1.75 0 0 0 -2.455.311l-2.186 2.817a1.75 1.75 0 1 0 2.766 2.144l2.184-2.818a1.75 1.75 0 0 0 -.309-2.454z"/><path d="m41.209 43.143-3.287 1.878a1.75 1.75 0 1 0 1.736 3.04l3.287-1.879a1.75 1.75 0 1 0 -1.736-3.039z"/><path d="m70.837 51.721a1.75 1.75 0 1 0 -2.432 2.517l3.406 3.288a1.75 1.75 0 0 0 2.431-2.518z"/><path d="m93.064 46.99-2.664-1.879a1.75 1.75 0 0 0 -2.019 2.86l2.66 1.878a1.75 1.75 0 0 0 2.019-2.859z"/></g></svg>