<?xml version="1.0"?>
<svg xmlns="http://www.w3.org/2000/svg" width="512" height="512" viewBox="0 0 128 128"><g><path d="M98.071,44.528H93.539A30.254,30.254,0,0,0,70.2,20.852V6.307a1.75,1.75,0,0,0-1.75-1.75H59.554a1.75,1.75,0,0,0-1.75,1.75V20.852A30.254,30.254,0,0,0,34.461,44.528H29.929a1.751,1.751,0,0,0-1.75,1.75V56.437a1.751,1.751,0,0,0,1.75,1.75h4.062l3.091,63.591a1.749,1.749,0,0,0,1.748,1.665H89.17a1.749,1.749,0,0,0,1.748-1.665l3.091-63.591h4.062a1.751,1.751,0,0,0,1.75-1.75V46.278A1.751,1.751,0,0,0,98.071,44.528ZM61.3,8.057H66.7v12.26c-.89-.081-1.789-.124-2.7-.124s-1.806.043-2.7.124ZM64,23.693A26.712,26.712,0,0,1,89.96,44.528H38.04A26.712,26.712,0,0,1,64,23.693Zm23.5,96.25H40.5l-3-61.756h53.01Zm8.818-65.256H31.679V48.028H96.321Z"/><path d="M83.466,39.449A21.881,21.881,0,0,0,76.733,31.5a1.75,1.75,0,0,0-2.053,2.834,18.368,18.368,0,0,1,5.651,6.672,1.75,1.75,0,1,0,3.135-1.557Z"/><path d="M70.871,28.488a21.712,21.712,0,0,0-5.21-1.047,1.751,1.751,0,1,0-.265,3.491,18.139,18.139,0,0,1,4.367.877,1.75,1.75,0,0,0,1.108-3.321Z"/><path d="M64,106.107A17.042,17.042,0,1,0,46.958,89.065,17.061,17.061,0,0,0,64,106.107Zm0-30.584A13.542,13.542,0,1,1,50.458,89.065,13.558,13.558,0,0,1,64,75.523Z"/></g></svg>
